<svg width="303.1739959716797" height="292.20462379119965"><g id="SvgjsG1076" fill="#ffffff" transform="translate(1.8266977071762085, 0) scale(6.005026752982633)" rel="inversefill" name="filled_container" xmlns:name="filledContainer_inversefill">  <title xmlns="http://www.w3.org/2000/svg">assets</title>
  <g xmlns="http://www.w3.org/2000/svg">
    <g>
      <circle cx="1.5" cy="24.33" r="0.36"></circle>
      <circle cx="351.69" cy="577.14" r="0.36" transform="translate(-408.45 -510.51) rotate(-6)"></circle>
      <circle cx="352.06" cy="579.5" r="0.36" transform="translate(-462.83 -464.58) rotate(-12)"></circle>
      <circle cx="352.68" cy="581.81" r="0.36" transform="translate(-512.6 -412.94) rotate(-18)"></circle>
      <circle cx="353.53" cy="584.04" r="0.36" transform="translate(-557.04 -356.14) rotate(-24)"></circle>
      <circle cx="354.62" cy="586.17" r="0.36" transform="translate(-595.64 -294.57) rotate(-30)"></circle>
      <circle cx="355.92" cy="588.17" r="0.36" transform="translate(-627.81 -228.87) rotate(-36)"></circle>
      <circle cx="357.42" cy="590.03" r="0.36" transform="translate(-653.05 -159.72) rotate(-42)"></circle>
      <circle cx="359.11" cy="591.72" r="0.36" transform="translate(-670.96 -87.8) rotate(-48)"></circle>
      <circle cx="360.97" cy="593.22" r="0.36" transform="translate(-681.18 -13.89) rotate(-54)"></circle>
      <circle cx="362.97" cy="594.52" r="0.36" transform="translate(-683.44 61.17) rotate(-60)"></circle>
      <circle cx="365.1" cy="595.61" r="0.36" transform="translate(-677.56 136.52) rotate(-66)"></circle>
      <circle cx="367.33" cy="596.46" r="0.36" transform="translate(-663.53 210.98) rotate(-71.99)"></circle>
      <circle cx="369.64" cy="597.08" r="0.36" transform="translate(-641.32 284.03) rotate(-78)"></circle>
      <circle cx="372" cy="597.46" r="0.36" transform="translate(-611.12 354.54) rotate(-84)"></circle>
      <circle cx="24.33" cy="47.16" r="0.36"></circle>
      <circle cx="376.77" cy="597.46" r="0.36" transform="translate(-410.46 -507.75) rotate(-6)"></circle>
      <circle cx="379.13" cy="597.08" r="0.36" transform="translate(-465.89 -458.57) rotate(-12)"></circle>
      <circle cx="381.44" cy="596.46" r="0.36" transform="translate(-515.68 -403.39) rotate(-18)"></circle>
      <circle cx="383.67" cy="595.61" r="0.36" transform="translate(-559.12 -342.92) rotate(-24)"></circle>
      <circle cx="385.8" cy="594.52" r="0.36" transform="translate(-595.61 -277.91) rotate(-30)"></circle>
      <circle cx="387.81" cy="593.22" r="0.36" transform="translate(-624.69 -209.15) rotate(-36)"></circle>
      <circle cx="389.66" cy="591.72" r="0.36" transform="translate(-645.92 -137.67) rotate(-42)"></circle>
      <circle cx="391.35" cy="590.03" r="0.36" transform="translate(-659.05 -64.35) rotate(-48)"></circle>
      <circle cx="392.86" cy="588.17" r="0.36" transform="translate(-663.96 9.84) rotate(-54)"></circle>
      <circle cx="394.16" cy="586.17" r="0.36" transform="translate(-660.62 83.99) rotate(-60)"></circle>
      <circle cx="395.24" cy="584.04" r="0.36" transform="translate(-649.13 157.11) rotate(-66)"></circle>
      <circle cx="396.1" cy="581.81" r="0.36" transform="translate(-629.7 228.28) rotate(-72)"></circle>
      <circle cx="396.72" cy="579.5" r="0.36" transform="translate(-602.64 296.68) rotate(-78)"></circle>
      <circle cx="397.09" cy="577.14" r="0.36" transform="translate(-568.44 361.33) rotate(-84)"></circle>
      <circle cx="47.16" cy="24.33" r="0.36"></circle>
      <circle cx="397.09" cy="572.37" r="0.36" transform="translate(-407.7 -505.79) rotate(-6)"></circle>
      <circle cx="396.72" cy="570.01" r="0.36" transform="translate(-459.86 -455.53) rotate(-11.99)"></circle>
      <circle cx="396.1" cy="567.7" r="0.36" transform="translate(-506.12 -400.21) rotate(-18)"></circle>
      <circle cx="395.24" cy="565.47" r="0.36" transform="translate(-545.9 -340.75) rotate(-24)"></circle>
      <circle cx="394.16" cy="563.34" r="0.36" transform="translate(-578.9 -277.91) rotate(-30)"></circle>
      <circle cx="392.86" cy="561.34" r="0.36" transform="translate(-604.98 -212.27) rotate(-36)"></circle>
      <circle cx="391.35" cy="559.48" r="0.36" transform="translate(-623.9 -144.87) rotate(-42)"></circle>
      <circle cx="389.66" cy="557.79" r="0.36" transform="translate(-635.66 -76.23) rotate(-48.01)"></circle>
      <circle cx="387.81" cy="556.29" r="0.36" transform="translate(-640.24 -7.4) rotate(-54)"></circle>
      <circle cx="385.8" cy="554.98" r="0.36" transform="translate(-637.78 61.23) rotate(-60)"></circle>
      <circle cx="383.67" cy="553.9" r="0.36" transform="translate(-628.44 128.76) rotate(-66.01)"></circle>
      <circle cx="381.44" cy="553.04" r="0.36" transform="translate(-612.44 194.56) rotate(-72.01)"></circle>
      <circle cx="379.13" cy="552.42" r="0.36" transform="translate(-590.09 258.02) rotate(-78)"></circle>
      <circle cx="376.77" cy="552.05" r="0.36" transform="translate(-561.7 318.62) rotate(-84)"></circle>
      <circle cx="24.33" cy="1.5" r="0.36"></circle>
      <circle cx="372" cy="552.05" r="0.36" transform="translate(-405.73 -508.51) rotate(-6)"></circle>
      <circle cx="369.64" cy="552.42" r="0.36" transform="translate(-456.88 -461.46) rotate(-12)"></circle>
      <circle cx="367.33" cy="553.04" r="0.36" transform="matrix(0.95, -0.31, 0.31, 0.95, -503.02, -409.79)"></circle>
      <circle cx="365.1" cy="553.9" r="0.36" transform="translate(-543.75 -354.09) rotate(-23.99)"></circle>
      <circle cx="362.97" cy="554.98" r="0.36" transform="translate(-578.93 -294.57) rotate(-30)"></circle>
      <circle cx="360.97" cy="556.29" r="0.36" transform="translate(-608.11 -231.98) rotate(-36)"></circle>
      <circle cx="359.11" cy="557.79" r="0.36" transform="translate(-631.03 -166.92) rotate(-41.99)"></circle>
      <circle cx="357.42" cy="559.48" r="0.36" transform="translate(-647.57 -99.68) rotate(-48)"></circle>
      <circle cx="355.92" cy="561.34" r="0.36" transform="translate(-657.47 -31.12) rotate(-54)"></circle>
      <circle cx="354.62" cy="563.34" r="0.36" transform="translate(-660.61 38.4) rotate(-60)"></circle>
      <circle cx="353.53" cy="565.47" r="0.36" transform="translate(-656.9 108.02) rotate(-66)"></circle>
      <circle cx="352.68" cy="567.7" r="0.36" transform="translate(-646.28 177.24) rotate(-72)"></circle>
      <circle cx="352.06" cy="570.01" r="0.36" transform="translate(-628.73 245.48) rotate(-78)"></circle>
      <circle cx="351.69" cy="572.37" r="0.36" transform="translate(-604.37 311.87) rotate(-84)"></circle>
    </g>
    <g>
      <circle cx="0.37" cy="24.33" r="0.37"></circle>
      <circle cx="350.56" cy="577.26" r="0.37" transform="translate(-408.48 -510.61) rotate(-6)"></circle>
      <circle cx="350.95" cy="579.73" r="0.37" transform="translate(-462.95 -464.76) rotate(-12)"></circle>
      <circle cx="351.6" cy="582.16" r="0.37" transform="translate(-512.73 -413.29) rotate(-18)"></circle>
      <circle cx="352.5" cy="584.5" r="0.37" transform="translate(-557.28 -356.57) rotate(-23.99)"></circle>
      <circle cx="353.64" cy="586.73" r="0.37" transform="translate(-596.06 -294.96) rotate(-30)"></circle>
      <circle cx="355.01" cy="588.84" r="0.37" transform="translate(-628.37 -229.3) rotate(-36)"></circle>
      <circle cx="356.58" cy="590.78" r="0.37" transform="translate(-653.77 -160.1) rotate(-42)"></circle>
      <circle cx="358.36" cy="592.56" r="0.37" transform="translate(-671.86 -87.98) rotate(-48.01)"></circle>
      <circle cx="360.31" cy="594.14" r="0.37" transform="translate(-682.2 -14.02) rotate(-54)"></circle>
      <circle cx="362.41" cy="595.5" r="0.37" transform="translate(-684.57 61.12) rotate(-59.99)"></circle>
      <circle cx="364.64" cy="596.64" r="0.37" transform="translate(-678.79 136.64) rotate(-66)"></circle>
      <circle cx="366.99" cy="597.54" r="0.37" transform="translate(-664.77 211.51) rotate(-72)"></circle>
      <circle cx="369.41" cy="598.19" r="0.37" transform="translate(-642.54 284.82) rotate(-78.01)"></circle>
      <circle cx="371.88" cy="598.58" r="0.37" transform="translate(-612.35 355.43) rotate(-84)"></circle>
      <circle cx="24.33" cy="48.29" r="0.37"></circle>
      <circle cx="376.89" cy="598.58" r="0.37" transform="translate(-410.57 -507.74) rotate(-6)"></circle>
      <circle cx="379.37" cy="598.19" r="0.37" transform="translate(-466.1 -458.51) rotate(-12)"></circle>
      <circle cx="381.79" cy="597.54" r="0.37" transform="matrix(0.95, -0.31, 0.31, 0.95, -516.05, -403.16)"></circle>
      <circle cx="384.13" cy="596.64" r="0.37" transform="translate(-559.54 -342.57) rotate(-24)"></circle>
      <circle cx="386.37" cy="595.5" r="0.37" transform="translate(-596.03 -277.5) rotate(-30)"></circle>
      <circle cx="388.47" cy="594.14" r="0.37" transform="translate(-625.09 -208.61) rotate(-36)"></circle>
      <circle cx="390.42" cy="592.56" r="0.37" transform="translate(-646.27 -137) rotate(-42)"></circle>
      <circle cx="392.19" cy="590.78" r="0.37" transform="translate(-659.33 -63.47) rotate(-48)"></circle>
      <circle cx="393.77" cy="588.84" r="0.37" transform="translate(-664.12 10.87) rotate(-54)"></circle>
      <circle cx="395.14" cy="586.73" r="0.37" transform="translate(-660.62 85.1) rotate(-60)"></circle>
      <circle cx="396.28" cy="584.5" r="0.37" transform="translate(-648.91 158.45) rotate(-66.01)"></circle>
      <circle cx="397.17" cy="582.16" r="0.37" transform="translate(-629.27 229.6) rotate(-72)"></circle>
      <circle cx="397.82" cy="579.73" r="0.37" transform="translate(-602.02 297.88) rotate(-78)"></circle>
      <circle cx="398.22" cy="577.26" r="0.37" transform="translate(-567.57 362.52) rotate(-84)"></circle>
      <circle cx="48.29" cy="24.33" r="0.37"></circle>
      <circle cx="398.22" cy="572.25" r="0.37" transform="translate(-407.7 -505.66) rotate(-6)"></circle>
      <circle cx="397.82" cy="569.77" r="0.37" transform="translate(-459.84 -455.24) rotate(-12)"></circle>
      <circle cx="397.17" cy="567.35" r="0.37" transform="matrix(0.95, -0.31, 0.31, 0.95, -505.92, -399.94)"></circle>
      <circle cx="396.28" cy="565.01" r="0.37" transform="translate(-545.6 -340.41) rotate(-24)"></circle>
      <circle cx="395.14" cy="562.77" r="0.37" transform="translate(-578.5 -277.48) rotate(-30)"></circle>
      <circle cx="393.77" cy="560.67" r="0.37" transform="translate(-604.42 -211.85) rotate(-36)"></circle>
      <circle cx="392.19" cy="558.72" r="0.37" transform="translate(-623.19 -144.45) rotate(-42)"></circle>
      <circle cx="390.42" cy="556.95" r="0.37" transform="translate(-634.77 -76.03) rotate(-48)"></circle>
      <circle cx="388.47" cy="555.37" r="0.37" transform="translate(-639.23 -7.21) rotate(-54)"></circle>
      <circle cx="386.37" cy="554.01" r="0.37" transform="translate(-636.66 61.18) rotate(-60)"></circle>
      <circle cx="384.13" cy="552.87" r="0.37" transform="translate(-627.24 128.49) rotate(-66)"></circle>
      <circle cx="381.79" cy="551.97" r="0.37" transform="translate(-611.22 194.02) rotate(-71.99)"></circle>
      <circle cx="379.37" cy="551.32" r="0.37" transform="translate(-588.82 257.39) rotate(-78)"></circle>
      <circle cx="376.89" cy="550.93" r="0.37" transform="translate(-560.47 317.74) rotate(-84)"></circle>
      <circle cx="24.33" cy="0.37" r="0.37"></circle>
      <circle cx="371.88" cy="550.93" r="0.37" transform="translate(-405.61 -508.53) rotate(-6)"></circle>
      <circle cx="369.41" cy="551.32" r="0.37" transform="translate(-456.54 -461.64) rotate(-11.99)"></circle>
      <circle cx="366.99" cy="551.97" r="0.37" transform="translate(-502.66 -410) rotate(-18)"></circle>
      <circle cx="364.64" cy="552.87" r="0.37" transform="translate(-543.4 -354.32) rotate(-24)"></circle>
      <circle cx="362.41" cy="554.01" r="0.37" transform="translate(-578.55 -294.9) rotate(-30.01)"></circle>
      <circle cx="360.31" cy="555.37" r="0.37" transform="translate(-607.68 -232.57) rotate(-36)"></circle>
      <circle cx="358.36" cy="556.95" r="0.37" transform="translate(-630.68 -167.61) rotate(-42)"></circle>
      <circle cx="356.58" cy="558.72" r="0.37" transform="translate(-647.28 -100.59) rotate(-48)"></circle>
      <circle cx="355.01" cy="560.67" r="0.37" transform="translate(-657.31 -32.14) rotate(-54)"></circle>
      <circle cx="353.64" cy="562.77" r="0.37" transform="translate(-660.61 37.25) rotate(-60)"></circle>
      <circle cx="352.5" cy="565.01" r="0.37" transform="translate(-657.09 106.79) rotate(-66)"></circle>
      <circle cx="351.6" cy="567.35" r="0.37" transform="translate(-646.68 176.02) rotate(-72)"></circle>
      <circle cx="350.95" cy="569.77" r="0.37" transform="translate(-629.41 244.13) rotate(-78)"></circle>
      <circle cx="350.56" cy="572.25" r="0.37" transform="translate(-605.26 310.64) rotate(-84)"></circle>
    </g>
    <g>
      <circle cx="2.64" cy="24.33" r="0.34"></circle>
      <circle cx="352.81" cy="577.02" r="0.34" transform="matrix(0.99, -0.1, 0.1, 0.99, -408.44, -510.38)"></circle>
      <circle cx="353.17" cy="579.26" r="0.34" transform="translate(-462.8 -464.31) rotate(-12)"></circle>
      <circle cx="353.76" cy="581.46" r="0.34" transform="translate(-512.44 -412.63) rotate(-18)"></circle>
      <circle cx="354.57" cy="583.58" r="0.34" transform="translate(-556.78 -355.73) rotate(-24)"></circle>
      <circle cx="355.6" cy="585.6" r="0.34" transform="translate(-595.22 -294.16) rotate(-30)"></circle>
      <circle cx="356.84" cy="587.51" r="0.34" transform="matrix(0.81, -0.59, 0.59, 0.81, -627.25, -228.43)"></circle>
      <circle cx="358.27" cy="589.27" r="0.34" transform="translate(-652.34 -159.3) rotate(-42)"></circle>
      <circle cx="359.87" cy="590.88" r="0.34" transform="translate(-670.1 -87.46) rotate(-48)"></circle>
      <circle cx="361.64" cy="592.3" r="0.34" transform="translate(-680.17 -13.75) rotate(-54)"></circle>
      <circle cx="363.54" cy="593.54" r="0.34" transform="translate(-682.31 61.18) rotate(-60)"></circle>
      <circle cx="365.56" cy="594.57" r="0.34" transform="translate(-676.35 136.28) rotate(-66)"></circle>
      <circle cx="367.68" cy="595.39" r="0.34" transform="translate(-662.25 210.62) rotate(-72)"></circle>
      <circle cx="369.88" cy="595.97" r="0.34" transform="translate(-640.02 283.48) rotate(-78)"></circle>
      <circle cx="372.12" cy="596.33" r="0.34" transform="matrix(0.1, -0.99, 0.99, 0.1, -609.93, 353.58)"></circle>
      <circle cx="24.33" cy="46.03" r="0.34"></circle>
      <circle cx="376.66" cy="596.33" r="0.34" transform="translate(-410.33 -507.78) rotate(-6)"></circle>
      <circle cx="378.9" cy="595.97" r="0.34" transform="translate(-465.7 -458.61) rotate(-12)"></circle>
      <circle cx="381.09" cy="595.39" r="0.34" transform="translate(-515.41 -403.5) rotate(-18)"></circle>
      <circle cx="383.21" cy="594.57" r="0.34" transform="translate(-558.76 -343.16) rotate(-24)"></circle>
      <circle cx="385.24" cy="593.54" r="0.34" transform="matrix(0.87, -0.5, 0.5, 0.87, -595.25, -278.22)"></circle>
      <circle cx="387.14" cy="592.3" r="0.34" transform="translate(-624.31 -209.64) rotate(-36.01)"></circle>
      <circle cx="388.9" cy="590.88" r="0.34" transform="translate(-645.53 -138.44) rotate(-42)"></circle>
      <circle cx="390.51" cy="589.27" r="0.34" transform="translate(-658.76 -65.28) rotate(-48)"></circle>
      <circle cx="391.94" cy="587.51" r="0.34" transform="translate(-663.79 8.79) rotate(-54)"></circle>
      <circle cx="393.18" cy="585.6" r="0.34" transform="translate(-660.61 82.87) rotate(-60)"></circle>
      <circle cx="394.21" cy="583.58" r="0.34" transform="translate(-649.32 155.86) rotate(-66)"></circle>
      <circle cx="395.02" cy="581.46" r="0.34" transform="translate(-630.11 227.02) rotate(-72)"></circle>
      <circle cx="395.61" cy="579.26" r="0.34" transform="translate(-603.31 295.37) rotate(-78)"></circle>
      <circle cx="395.96" cy="577.02" r="0.34" transform="translate(-569.34 360.08) rotate(-84)"></circle>
      <circle cx="46.03" cy="24.33" r="0.34"></circle>
      <circle cx="395.96" cy="572.49" r="0.34" transform="translate(-407.73 -505.9) rotate(-6)"></circle>
      <circle cx="395.61" cy="570.24" r="0.34" transform="translate(-459.96 -455.72) rotate(-12)"></circle>
      <circle cx="395.02" cy="568.05" r="0.34" transform="translate(-506.22 -400.6) rotate(-17.99)"></circle>
      <circle cx="394.21" cy="565.93" r="0.34" transform="translate(-546.19 -341.11) rotate(-24)"></circle>
      <circle cx="393.18" cy="563.91" r="0.34" transform="translate(-579.31 -278.34) rotate(-29.99)"></circle>
      <circle cx="391.94" cy="562" r="0.34" transform="translate(-605.56 -212.66) rotate(-36)"></circle>
      <circle cx="390.51" cy="560.24" r="0.34" transform="translate(-624.62 -145.24) rotate(-42)"></circle>
      <circle cx="388.9" cy="558.63" r="0.34" transform="translate(-636.53 -76.56) rotate(-48)"></circle>
      <circle cx="387.14" cy="557.2" r="0.34" transform="translate(-641.26 -7.65) rotate(-53.99)"></circle>
      <circle cx="385.24" cy="555.97" r="0.34" transform="translate(-638.93 61.11) rotate(-59.99)"></circle>
      <circle cx="383.21" cy="554.93" r="0.34" transform="translate(-629.67 128.86) rotate(-66)"></circle>
      <circle cx="381.09" cy="554.12" r="0.34" transform="translate(-613.73 194.9) rotate(-72)"></circle>
      <circle cx="378.9" cy="553.53" r="0.34" transform="translate(-591.37 258.64) rotate(-78)"></circle>
      <circle cx="376.66" cy="553.18" r="0.34" transform="translate(-562.92 319.53) rotate(-84)"></circle>
      <circle cx="24.33" cy="2.64" r="0.34"></circle>
      <circle cx="372.12" cy="553.18" r="0.34" transform="translate(-405.9 -508.45) rotate(-6.01)"></circle>
      <circle cx="369.88" cy="553.53" r="0.34" transform="translate(-457.02 -461.46) rotate(-12)"></circle>
      <circle cx="367.68" cy="554.12" r="0.34" transform="translate(-503.31 -409.67) rotate(-18)"></circle>
      <circle cx="365.56" cy="554.93" r="0.34" transform="translate(-544.18 -353.74) rotate(-24)"></circle>
      <circle cx="363.54" cy="555.97" r="0.34" transform="translate(-579.34 -294.16) rotate(-30)"></circle>
      <circle cx="361.64" cy="557.2" r="0.34" transform="translate(-608.52 -231.39) rotate(-36)"></circle>
      <circle cx="359.87" cy="558.63" r="0.34" transform="translate(-631.42 -166.15) rotate(-42)"></circle>
      <circle cx="358.27" cy="560.24" r="0.34" transform="translate(-647.86 -98.79) rotate(-48)"></circle>
      <circle cx="356.84" cy="562" r="0.34" transform="translate(-657.63 -30.12) rotate(-54)"></circle>
      <circle cx="355.6" cy="563.91" r="0.34" transform="translate(-660.61 39.55) rotate(-60.01)"></circle>
      <circle cx="354.57" cy="565.93" r="0.34" transform="translate(-656.71 109.21) rotate(-66)"></circle>
      <circle cx="353.76" cy="568.05" r="0.34" transform="translate(-645.85 178.6) rotate(-72.01)"></circle>
      <circle cx="353.17" cy="570.24" r="0.34" transform="translate(-628.1 246.7) rotate(-78)"></circle>
      <circle cx="352.81" cy="572.49" r="0.34" transform="translate(-603.47 313.1) rotate(-84)"></circle>
    </g>
    <g>
      <circle cx="3.69" cy="24.33" r="0.32"></circle>
      <circle cx="353.86" cy="576.91" r="0.32" transform="translate(-408.39 -510.3) rotate(-6)"></circle>
      <circle cx="354.2" cy="579.05" r="0.32" transform="translate(-462.69 -464.15) rotate(-12)"></circle>
      <circle cx="354.76" cy="581.13" r="0.32" transform="translate(-512.34 -412.28) rotate(-18.01)"></circle>
      <circle cx="355.53" cy="583.15" r="0.32" transform="translate(-556.51 -355.39) rotate(-24)"></circle>
      <circle cx="356.51" cy="585.07" r="0.32" transform="translate(-594.85 -293.74) rotate(-30)"></circle>
      <circle cx="357.69" cy="586.89" r="0.32" transform="translate(-626.68 -228.15) rotate(-35.99)"></circle>
      <circle cx="359.05" cy="588.57" r="0.32" transform="translate(-651.65 -159.05) rotate(-42)"></circle>
      <circle cx="360.58" cy="590.09" r="0.32" transform="translate(-669.28 -87.23) rotate(-48)"></circle>
      <circle cx="362.25" cy="591.45" r="0.32" transform="translate(-679.23 -13.46) rotate(-54.01)"></circle>
      <circle cx="364.07" cy="592.63" r="0.32" transform="translate(-681.26 61.18) rotate(-60)"></circle>
      <circle cx="365.99" cy="593.61" r="0.32" transform="translate(-675.22 136.09) rotate(-66)"></circle>
      <circle cx="368.01" cy="594.39" r="0.32" transform="translate(-661.06 210.3) rotate(-72)"></circle>
      <circle cx="370.1" cy="594.95" r="0.32" transform="translate(-638.87 282.79) rotate(-78)"></circle>
      <circle cx="372.23" cy="595.28" r="0.32" transform="translate(-608.75 352.85) rotate(-84)"></circle>
      <circle cx="24.33" cy="44.97" r="0.32"></circle>
      <circle cx="376.55" cy="595.28" r="0.32" transform="translate(-410.32 -507.72) rotate(-6.01)"></circle>
      <circle cx="378.68" cy="594.95" r="0.32" transform="translate(-465.46 -458.71) rotate(-12)"></circle>
      <circle cx="380.77" cy="594.39" r="0.32" transform="translate(-515.09 -403.68) rotate(-18)"></circle>
      <circle cx="382.78" cy="593.61" r="0.32" transform="translate(-558.46 -343.34) rotate(-24.01)"></circle>
      <circle cx="384.71" cy="592.63" r="0.32" transform="translate(-594.83 -278.66) rotate(-30)"></circle>
      <circle cx="386.52" cy="591.45" r="0.32" transform="translate(-623.88 -210.29) rotate(-36)"></circle>
      <circle cx="388.2" cy="590.09" r="0.32" transform="translate(-645.17 -139.21) rotate(-41.99)"></circle>
      <circle cx="389.73" cy="588.57" r="0.32" transform="translate(-658.51 -66) rotate(-48)"></circle>
      <circle cx="391.09" cy="586.89" r="0.32" transform="translate(-663.65 7.92) rotate(-54)"></circle>
      <circle cx="392.27" cy="585.07" r="0.32" transform="translate(-660.62 81.78) rotate(-60)"></circle>
      <circle cx="393.25" cy="583.15" r="0.32" transform="translate(-649.49 154.81) rotate(-66)"></circle>
      <circle cx="394.02" cy="581.13" r="0.32" transform="matrix(0.31, -0.95, 0.95, 0.31, -630.51, 225.79)"></circle>
      <circle cx="394.58" cy="579.05" r="0.32" transform="translate(-603.89 294.23) rotate(-78)"></circle>
      <circle cx="394.92" cy="576.91" r="0.32" transform="translate(-570.15 358.97) rotate(-84)"></circle>
      <circle cx="44.97" cy="24.33" r="0.32"></circle>
      <circle cx="394.92" cy="572.6" r="0.32" transform="translate(-407.78 -505.98) rotate(-6)"></circle>
      <circle cx="394.58" cy="570.46" r="0.32" transform="translate(-460.07 -455.89) rotate(-12)"></circle>
      <circle cx="394.02" cy="568.37" r="0.32" transform="translate(-506.41 -400.85) rotate(-18)"></circle>
      <circle cx="393.25" cy="566.36" r="0.32" transform="translate(-546.41 -341.53) rotate(-24)"></circle>
      <circle cx="392.27" cy="564.43" r="0.32" transform="translate(-579.71 -278.69) rotate(-30)"></circle>
      <circle cx="391.09" cy="562.62" r="0.32" transform="translate(-606.06 -213.11) rotate(-36)"></circle>
      <circle cx="389.73" cy="560.94" r="0.32" transform="translate(-625.27 -145.66) rotate(-41.99)"></circle>
      <circle cx="388.2" cy="559.41" r="0.32" transform="translate(-637.35 -76.79) rotate(-48)"></circle>
      <circle cx="386.52" cy="558.05" r="0.32" transform="translate(-642.2 -7.67) rotate(-54)"></circle>
      <circle cx="384.71" cy="556.88" r="0.32" transform="translate(-639.97 61.18) rotate(-60)"></circle>
      <circle cx="382.78" cy="555.9" r="0.32" transform="translate(-630.82 128.98) rotate(-65.99)"></circle>
      <circle cx="380.77" cy="555.12" r="0.32" transform="translate(-614.9 195.32) rotate(-72)"></circle>
      <circle cx="378.68" cy="554.56" r="0.32" transform="translate(-592.54 259.27) rotate(-78)"></circle>
      <circle cx="376.55" cy="554.22" r="0.32" transform="translate(-564.12 320.24) rotate(-83.99)"></circle>
      <circle cx="24.33" cy="3.69" r="0.32"></circle>
      <circle cx="372.23" cy="554.22" r="0.32" transform="translate(-405.94 -508.48) rotate(-6)"></circle>
      <circle cx="370.1" cy="554.56" r="0.32" transform="translate(-457.31 -461.32) rotate(-12)"></circle>
      <circle cx="368.01" cy="555.12" r="0.32" transform="translate(-503.57 -409.55) rotate(-18)"></circle>
      <circle cx="365.99" cy="555.9" r="0.32" transform="translate(-544.52 -353.49) rotate(-24)"></circle>
      <circle cx="364.07" cy="556.88" r="0.32" transform="translate(-579.72 -293.78) rotate(-30)"></circle>
      <circle cx="362.25" cy="558.05" r="0.32" transform="matrix(0.81, -0.59, 0.59, 0.81, -608.86, -230.99)"></circle>
      <circle cx="360.58" cy="559.41" r="0.32" transform="translate(-631.78 -165.4) rotate(-42.01)"></circle>
      <circle cx="359.05" cy="560.94" r="0.32" transform="translate(-648.14 -97.9) rotate(-48.01)"></circle>
      <circle cx="357.69" cy="562.62" r="0.32" transform="translate(-657.79 -29.06) rotate(-54.01)"></circle>
      <circle cx="356.51" cy="564.43" r="0.32" transform="translate(-660.61 40.56) rotate(-60)"></circle>
      <circle cx="355.53" cy="566.36" r="0.32" transform="translate(-656.53 110.36) rotate(-66)"></circle>
      <circle cx="354.76" cy="568.37" r="0.32" transform="translate(-645.49 179.69) rotate(-72)"></circle>
      <circle cx="354.2" cy="570.46" r="0.32" transform="translate(-627.52 247.84) rotate(-78)"></circle>
      <circle cx="353.86" cy="572.6" r="0.32" transform="translate(-602.66 314.2) rotate(-84)"></circle>
    </g>
    <g>
      <circle cx="4.7" cy="24.33" r="0.31"></circle>
      <circle cx="354.87" cy="576.81" r="0.31" transform="translate(-408.43 -510.15) rotate(-6)"></circle>
      <circle cx="355.19" cy="578.83" r="0.31" transform="translate(-462.65 -463.92) rotate(-12)"></circle>
      <circle cx="355.72" cy="580.82" r="0.31" transform="translate(-512.12 -412.08) rotate(-18)"></circle>
      <circle cx="356.45" cy="582.74" r="0.31" transform="translate(-556.26 -355.05) rotate(-24)"></circle>
      <circle cx="357.39" cy="584.57" r="0.31" transform="translate(-594.47 -293.39) rotate(-30)"></circle>
      <circle cx="358.51" cy="586.29" r="0.31" transform="translate(-626.18 -227.77) rotate(-36)"></circle>
      <circle cx="359.8" cy="587.89" r="0.31" transform="translate(-651.01 -158.68) rotate(-42)"></circle>
      <circle cx="361.25" cy="589.34" r="0.31" transform="translate(-668.49 -87.02) rotate(-48)"></circle>
      <circle cx="362.85" cy="590.64" r="0.31" transform="translate(-678.32 -13.42) rotate(-54)"></circle>
      <circle cx="364.57" cy="591.75" r="0.31" transform="translate(-680.24 61.27) rotate(-60.01)"></circle>
      <circle cx="366.4" cy="592.69" r="0.31" transform="translate(-674.13 135.95) rotate(-66)"></circle>
      <circle cx="368.32" cy="593.42" r="0.31" transform="translate(-659.91 209.99) rotate(-72.01)"></circle>
      <circle cx="370.31" cy="593.96" r="0.31" transform="translate(-637.66 282.41) rotate(-78.01)"></circle>
      <circle cx="372.34" cy="594.28" r="0.31" transform="translate(-607.68 352) rotate(-84)"></circle>
      <circle cx="24.33" cy="43.96" r="0.31"></circle>
      <circle cx="376.44" cy="594.28" r="0.31" transform="translate(-410.01 -507.9) rotate(-5.99)"></circle>
      <circle cx="378.47" cy="593.96" r="0.31" transform="translate(-465.22 -458.81) rotate(-11.99)"></circle>
      <circle cx="380.45" cy="593.42" r="0.31" transform="translate(-514.78 -403.85) rotate(-18)"></circle>
      <circle cx="382.37" cy="592.69" r="0.31" transform="translate(-558.05 -343.68) rotate(-24)"></circle>
      <circle cx="384.2" cy="591.75" r="0.31" transform="translate(-594.42 -279.12) rotate(-29.99)"></circle>
      <circle cx="385.93" cy="590.64" r="0.31" transform="translate(-623.52 -210.78) rotate(-36)"></circle>
      <circle cx="387.52" cy="589.34" r="0.31" transform="translate(-644.86 -139.75) rotate(-42)"></circle>
      <circle cx="388.98" cy="587.89" r="0.31" transform="translate(-658.25 -66.83) rotate(-48)"></circle>
      <circle cx="390.27" cy="586.29" r="0.31" transform="translate(-663.51 7.1) rotate(-54.01)"></circle>
      <circle cx="391.39" cy="584.57" r="0.31" transform="translate(-660.62 80.79) rotate(-60)"></circle>
      <circle cx="392.32" cy="582.74" r="0.31" transform="translate(-649.67 153.69) rotate(-66)"></circle>
      <circle cx="393.06" cy="580.82" r="0.31" transform="translate(-630.85 224.74) rotate(-72)"></circle>
      <circle cx="393.59" cy="578.83" r="0.31" transform="translate(-604.48 293.08) rotate(-78)"></circle>
      <circle cx="393.91" cy="576.81" r="0.31" transform="matrix(0.1, -0.99, 0.99, 0.1, -570.98, 357.81)"></circle>
      <circle cx="43.96" cy="24.33" r="0.31"></circle>
      <circle cx="393.91" cy="572.7" r="0.31" transform="translate(-407.72 -506.14) rotate(-6)"></circle>
      <circle cx="393.59" cy="570.67" r="0.31" transform="translate(-460.09 -456.14) rotate(-12)"></circle>
      <circle cx="393.06" cy="568.69" r="0.31" transform="translate(-506.6 -401.07) rotate(-18.01)"></circle>
      <circle cx="392.32" cy="566.77" r="0.31" transform="translate(-546.67 -341.85) rotate(-24)"></circle>
      <circle cx="391.39" cy="564.94" r="0.31" transform="translate(-580.1 -279.02) rotate(-30)"></circle>
      <circle cx="390.27" cy="563.21" r="0.31" transform="translate(-606.53 -213.58) rotate(-35.99)"></circle>
      <circle cx="388.98" cy="561.62" r="0.31" transform="translate(-625.94 -145.89) rotate(-42)"></circle>
      <circle cx="387.52" cy="560.16" r="0.31" transform="translate(-638.12 -77.08) rotate(-48)"></circle>
      <circle cx="385.93" cy="558.87" r="0.31" transform="translate(-643.11 -7.77) rotate(-54)"></circle>
      <circle cx="384.2" cy="557.75" r="0.31" transform="translate(-640.98 61.23) rotate(-60)"></circle>
      <circle cx="382.37" cy="556.82" r="0.31" transform="translate(-631.9 129.19) rotate(-66)"></circle>
      <circle cx="380.45" cy="556.08" r="0.31" transform="translate(-616.03 195.68) rotate(-72)"></circle>
      <circle cx="378.47" cy="555.55" r="0.31" transform="translate(-593.66 259.89) rotate(-78.01)"></circle>
      <circle cx="376.44" cy="555.23" r="0.31" transform="translate(-565.1 321.26) rotate(-84.01)"></circle>
      <circle cx="24.33" cy="4.7" r="0.31"></circle>
      <circle cx="372.34" cy="555.23" r="0.31" transform="translate(-406.09 -508.43) rotate(-6)"></circle>
      <circle cx="370.31" cy="555.55" r="0.31" transform="translate(-457.36 -461.4) rotate(-11.99)"></circle>
      <circle cx="368.32" cy="556.08" r="0.31" transform="translate(-503.84 -409.42) rotate(-18)"></circle>
      <circle cx="366.4" cy="556.82" r="0.31" transform="translate(-544.88 -353.22) rotate(-24)"></circle>
      <circle cx="364.57" cy="557.75" r="0.31" transform="translate(-580.07 -293.45) rotate(-30)"></circle>
      <circle cx="362.85" cy="558.87" r="0.31" transform="translate(-609.24 -230.44) rotate(-36)"></circle>
      <circle cx="361.25" cy="560.16" r="0.31" transform="translate(-632.1 -164.77) rotate(-42)"></circle>
      <circle cx="359.8" cy="561.62" r="0.31" transform="translate(-648.37 -97.22) rotate(-48)"></circle>
      <circle cx="358.51" cy="563.21" r="0.31" transform="translate(-657.93 -28.15) rotate(-54.01)"></circle>
      <circle cx="357.39" cy="564.94" r="0.31" transform="translate(-660.62 41.53) rotate(-60)"></circle>
      <circle cx="356.45" cy="566.77" r="0.31" transform="translate(-656.36 111.45) rotate(-66)"></circle>
      <circle cx="355.72" cy="568.69" r="0.31" transform="translate(-645.13 180.78) rotate(-71.99)"></circle>
      <circle cx="355.19" cy="570.67" r="0.31" transform="translate(-626.92 249.02) rotate(-78)"></circle>
      <circle cx="354.87" cy="572.7" r="0.31" transform="translate(-601.83 315.38) rotate(-84)"></circle>
    </g>
  </g>
</g><g id="SvgjsG1077" rel="mainfill" name="main_text" xmlns:name="mainText_mainfill" fill="#271b32" transform="translate(73.36200046539307, 180.8103130323796)"><path fill="#fff" d="M23.688 27.552 c0.882 0.168 1.638 0.252 2.436 0.378 c0.84 0.126 1.218 0.546 1.176 1.47 c-0.042 1.68 0.084 1.89 0 3.57 c-0.042 1.05 -0.63 1.47 -1.722 1.428 l-1.764 -0.126 c-0.546 -0.042 -0.882 0.168 -0.924 0.798 c-0.084 1.176 -0.21 3.78 -0.336 4.998 c-0.084 0.966 0.21 1.302 -0.798 1.26 c-1.05 -0.042 -2.1 0.084 -3.15 0 c-0.714 -0.042 -1.47 -0.252 -2.142 -0.462 c-0.168 -0.042 -0.294 -0.504 -0.294 -0.798 l0 -5.964 c-0.84 -0.042 -1.638 -0.084 -2.478 -0.126 c-1.218 -0.042 -2.394 -0.042 -3.612 -0.126 c-0.714 -0.042 -0.966 0.294 -0.924 0.966 c0.084 1.134 0.21 4.452 0.294 5.628 c0.084 1.134 -0.21 1.386 -1.344 1.428 c-1.806 0.084 -2.142 0.168 -3.906 0.252 c-1.302 0.042 -1.344 -0.168 -1.386 -1.428 c-0.042 -2.184 -0.21 -4.326 -0.294 -6.51 c-0.084 -1.134 -0.084 -2.226 -0.126 -3.318 c-0.084 -1.512 -0.168 -2.982 -0.21 -4.494 c-0.126 -3.234 -0.21 -6.468 -0.336 -9.702 c-0.042 -0.63 -0.084 -1.218 -0.126 -1.848 c-0.084 -2.016 0.378 -2.646 2.352 -2.688 s2.478 0.168 4.452 0.252 c0.672 0 0.714 0.504 0.714 0.924 c0.042 2.1 0.126 4.242 0.084 6.342 c0 2.184 -0.084 4.41 -0.126 6.594 c-0.042 0.546 0.126 0.756 0.672 0.756 c1.932 0.084 4.578 0.168 6.51 0.252 c0.462 0.042 0.588 -0.168 0.588 -0.546 c0 -3.108 0.084 -6.216 0 -9.324 c-0.042 -1.512 -0.336 -3.024 -0.462 -4.578 c-0.084 -1.302 0.378 -1.764 1.68 -1.764 c1.974 0.042 2.52 0.084 4.494 0.168 c1.092 0.042 1.386 0.462 1.386 1.554 c-0.042 2.562 -0.042 5.124 -0.042 7.686 c-0.042 2.058 -0.042 4.074 -0.084 6.09 c-0.042 0.294 -0.168 0.63 -0.252 1.008 z M56.07 25.368 c0.042 3.696 -0.714 6.972 -2.184 9.87 c-2.016 4.032 -5.418 6.384 -10.122 6.51 c-4.872 0.168 -8.358 -2.1 -10.794 -6.09 c-2.352 -3.822 -2.772 -7.98 -1.722 -12.348 c0.546 -2.31 1.008 -4.536 2.184 -6.594 c1.512 -2.73 3.654 -4.746 6.762 -5.418 c3.402 -0.714 6.51 0.126 9.408 1.932 c1.848 1.134 3.276 2.73 4.242 4.704 c0.378 0.798 0.756 1.638 1.134 2.436 c0.84 1.68 1.302 3.444 1.092 4.998 z M49.392 26.04 c0.252 -2.772 -1.302 -5.502 -3.78 -7.938 c-1.092 -1.092 -2.352 -1.386 -3.906 -1.092 c-2.184 0.42 -3.15 2.142 -3.864 3.864 c-1.092 2.52 -1.554 5.25 -0.924 8.022 c0.714 3.318 2.73 5.628 5.754 6.384 c1.806 0.462 3.402 -0.126 4.578 -1.596 c1.638 -2.016 2.184 -4.326 2.142 -7.644 z M81.98400000000001 18.942 c0.462 1.344 0.882 2.94 0.672 4.284 c-0.378 2.562 -1.302 4.956 -3.696 6.594 c-2.814 1.89 -6.048 2.52 -9.366 3.612 c-0.042 2.184 -0.126 4.41 -0.168 6.678 c-0.042 1.554 -0.084 1.638 -1.596 1.68 c-0.882 0.042 -1.722 0.042 -2.562 0 c-1.092 -0.084 -1.596 -0.588 -1.596 -1.638 c-0.042 -1.974 0.084 -3.948 -0.084 -5.922 c-0.42 -5.25 0.294 -10.458 -0.21 -16.002 c-0.84 0 -1.554 -0.126 -2.268 -0.042 c-0.924 0.084 -1.428 -0.21 -1.47 -1.176 c-0.042 -1.302 -0.126 -2.604 -0.084 -3.906 c0.042 -0.756 0.546 -1.218 1.26 -1.386 c3.318 -0.84 6.594 -1.302 9.912 -0.294 c1.89 0.588 3.864 1.008 5.754 1.68 c2.814 0.966 4.536 3.108 5.502 5.838 z M73.542 25.704 c1.176 -1.134 1.47 -2.772 0.924 -4.284 c-0.546 -1.386 -1.848 -2.1 -3.318 -2.352 c-1.176 -0.21 -1.554 0.126 -1.47 1.302 c0.042 0.84 0.042 1.68 0.126 2.52 c0.084 1.344 0.21 2.688 0.378 4.494 c1.428 -0.672 2.604 -0.966 3.36 -1.68 z  M128.268 25.368 c0.042 3.696 -0.714 6.972 -2.184 9.87 c-2.016 4.032 -5.418 6.384 -10.122 6.51 c-4.872 0.168 -8.358 -2.1 -10.794 -6.09 c-2.352 -3.822 -2.772 -7.98 -1.722 -12.348 c0.546 -2.31 1.008 -4.536 2.184 -6.594 c1.512 -2.73 3.654 -4.746 6.762 -5.418 c3.402 -0.714 6.51 0.126 9.408 1.932 c1.848 1.134 3.276 2.73 4.242 4.704 c0.378 0.798 0.756 1.638 1.134 2.436 c0.84 1.68 1.302 3.444 1.092 4.998 z M121.59 26.04 c0.252 -2.772 -1.302 -5.502 -3.78 -7.938 c-1.092 -1.092 -2.352 -1.386 -3.906 -1.092 c-2.184 0.42 -3.15 2.142 -3.864 3.864 c-1.092 2.52 -1.554 5.25 -0.924 8.022 c0.714 3.318 2.73 5.628 5.754 6.384 c1.806 0.462 3.402 -0.126 4.578 -1.596 c1.638 -2.016 2.184 -4.326 2.142 -7.644 z M153.258 11.129999999999999 c0.84 0 1.554 1.386 1.344 2.352 s-0.294 1.932 -0.252 2.94 c0.042 1.092 -0.126 2.226 -0.21 3.318 c-0.042 1.26 -0.126 2.478 -0.168 3.696 c-0.084 2.016 -0.126 3.99 -0.21 5.964 c-0.042 2.016 -0.084 4.032 -0.168 6.006 c-0.042 1.134 -0.21 2.226 -0.252 3.318 c0 0.798 0.084 1.596 0.21 2.394 c0.084 0.714 0 0.336 -0.672 0.378 c-0.672 0 -0.798 0.042 -1.848 -0.084 c-1.302 0.21 -2.646 0.42 -3.948 0.546 c-0.21 0.042 -0.588 -0.084 -0.714 -0.294 c-0.504 -0.966 -0.924 -2.016 -1.428 -2.982 c-0.756 -1.512 -1.554 -3.024 -2.352 -4.494 s-1.68 -2.898 -2.52 -4.368 c-0.588 -1.05 -1.218 -2.142 -1.932 -3.402 c0.042 1.722 0.084 3.276 0.168 4.872 c0.084 1.176 0.168 2.394 0.252 3.612 c0.042 1.302 0.084 2.604 0.168 3.906 c0 0.336 0.042 0.756 -0.042 1.092 c-0.084 0.252 -0.294 0.588 -0.462 0.63 c-0.966 0.168 -1.974 0.21 -2.982 0.336 c-0.504 0.084 -1.05 0.21 -1.638 0.336 c-0.042 -0.084 -0.126 -0.294 -0.168 -0.462 c-0.21 -1.89 -0.462 -3.78 -0.588 -5.628 c-0.252 -2.982 -0.378 -6.006 -0.546 -8.988 c-0.168 -2.184 -0.336 -4.326 -0.42 -6.51 c-0.126 -2.142 -0.126 -4.242 -0.168 -6.384 c0 -0.84 0.504 -1.596 1.176 -1.68 c0.756 -0.126 1.554 -0.126 2.352 -0.126 c0.84 -0.042 1.638 0 2.478 -0.084 c0.462 -0.084 0.714 0.042 0.924 0.588 c0.546 1.176 1.218 2.31 1.764 3.444 c0.378 0.798 0.672 1.596 1.05 2.394 c1.008 2.016 2.016 4.032 3.066 6.006 c0.63 1.218 1.344 2.394 2.058 3.612 c0.126 0.252 0.294 0.462 0.42 0.63 c0.042 -1.68 0.084 -3.402 0.126 -5.082 c0 -1.386 0 -2.772 -0.042 -4.158 c-0.042 -2.184 -0.126 -4.368 -0.252 -6.552 c-0.042 -1.008 0 -1.176 0.84 -1.134 c1.89 0 3.738 0 5.586 0.042 z"></path></g><defs id="SvgjsDefs1075"></defs><g id="SvgjsG1078" fill="#ffffff" rel="mainfill" name="symbol" xmlns:name="symbol_mainfill" transform="translate(97.34394243028429, 68.48325593568636) scale(1.4861111111111112)"><path xmlns="http://www.w3.org/2000/svg" d="M36.5,0.5c-19.9,0-36,16.1-36,36s16.1,36,36,36c19.9,0,36-16.1,36-36S56.4,0.5,36.5,0.5z M65,22  c-10.8-7.1-20.3-8.9-26.1-9.2c-0.3-0.9-0.8-1.7-1.4-2.4C39.3,9,42.8,7,47.6,6.5C55.1,9.3,61.4,14.9,65,22z M36.5,4.5  c1,0,1.9,0.1,2.9,0.1c-2.4,1.1-4.2,2.4-5.2,3.3c-1.2-0.5-2.5-0.8-3.8-0.8c-1.2,0-2.4,0.2-3.5,0.7C25.9,7.5,25,7.2,24.2,7  C28,5.4,32.1,4.5,36.5,4.5z M35.2,15c0,2.1-2.2,3.8-4.9,3.9h0c-2.7,0-4.9-1.7-4.9-3.8c0-2.1,2.2-3.8,4.9-3.9  C33,11.2,35.2,12.9,35.2,15z M17.8,10.6c0.8-0.1,2.8-0.3,5.1,0.2c-0.6,0.8-1,1.7-1.2,2.6c-4.6,1.1-9.3,4.2-12.8,7.1  C11.1,16.6,14.1,13.2,17.8,10.6z M4.5,36.5c0-2.5,0.3-4.9,0.8-7.3c1.4-1.6,9.2-9.6,16.5-11.8c0.4,1.1,1.1,2.1,2,2.9  C13.2,36.2,12.6,50.8,13.3,58.5C7.9,52.8,4.5,45,4.5,36.5z M36.5,68.5c-6.9,0-13.3-2.2-18.5-5.9c-0.8-3.6-3.6-21,9.3-40.2  c1.4,0.4,2.8,0.6,4.3,0.4c3.3,4.7,17,25.1,18.7,42.6C46.1,67.4,41.4,68.5,36.5,68.5z M54,63.3c-2.3-17.2-14.3-35.8-18.5-41.9  c1.7-1.1,3-2.7,3.5-4.6c6.2,0.4,16.8,2.6,28.6,12c0.6,2.5,0.9,5,0.9,7.7C68.5,47.7,62.7,57.6,54,63.3z"></path></g>
</svg>